<?xml version="1.0" standalone="no"?>
<!DOCTYPE svg PUBLIC "-//W3C//DTD SVG 20010904//EN"
 "http://www.w3.org/TR/2001/REC-SVG-20010904/DTD/svg10.dtd">
<svg version="1.0" xmlns="http://www.w3.org/2000/svg"
 width="2040.000000pt" height="1530.000000pt" viewBox="0 0 2040.000000 1530.000000"
 preserveAspectRatio="xMidYMid meet">
<metadata>
Created by potrace 1.16, written by Peter Selinger 2001-2019
</metadata>
<g transform="translate(0.000000,1530.000000) scale(0.100000,-0.100000)"
fill="#000000" stroke="none">
<path d="M6585 8359 c-134 -19 -280 -121 -334 -232 -46 -95 -52 -243 -12 -331
44 -99 136 -158 370 -235 157 -51 201 -77 201 -115 0 -42 -16 -50 -93 -54 -94
-5 -194 21 -318 84 -50 25 -92 44 -94 42 -5 -6 -145 -288 -145 -293 0 -10 107
-59 189 -86 119 -41 227 -59 346 -59 189 0 288 32 381 124 79 79 106 144 107
266 2 108 -20 173 -78 238 -59 65 -145 109 -336 171 -158 52 -199 76 -199 117
1 89 171 84 362 -12 37 -19 70 -34 72 -34 6 0 146 265 146 276 0 11 -118 63
-210 94 -131 44 -237 56 -355 39z"/>
<path d="M7838 8039 c-73 -10 -128 -39 -184 -95 -25 -24 -47 -44 -49 -44 -3 0
-5 29 -5 65 l0 65 -145 0 -145 0 0 -660 0 -660 168 2 167 3 3 248 2 249 55
-50 c68 -62 130 -85 234 -84 53 0 93 6 133 22 191 72 306 335 254 581 -52 245
-251 391 -488 358z m63 -302 c158 -83 100 -379 -74 -379 -49 0 -113 36 -147
84 -28 38 -30 47 -30 134 0 84 2 95 25 122 54 64 147 80 226 39z"/>
<path d="M8783 8040 c-39 -4 -102 -18 -139 -30 -64 -20 -184 -76 -184 -84 0
-15 90 -196 97 -196 5 0 40 16 78 35 153 77 305 74 355 -7 25 -42 28 -103 4
-94 -93 36 -271 33 -368 -5 -215 -84 -279 -336 -126 -489 133 -133 359 -126
511 17 42 40 49 43 54 27 13 -42 41 -88 65 -106 48 -34 141 -42 253 -22 l27 6
0 139 c0 137 0 140 -24 148 -33 13 -36 27 -36 154 -1 207 -29 316 -104 390
-92 92 -272 137 -463 117z m210 -545 c13 -5 17 -19 17 -52 0 -38 -5 -50 -33
-78 -44 -44 -128 -63 -180 -42 -86 36 -88 115 -3 169 26 16 43 19 106 15 41
-3 83 -8 93 -12z"/>
<path d="M9920 8040 c-177 -21 -332 -133 -395 -286 -40 -97 -47 -242 -16 -342
57 -187 209 -309 415 -332 154 -18 297 15 398 91 53 40 128 125 128 145 0 11
-61 32 -242 85 l-78 23 -22 -21 c-35 -32 -65 -44 -108 -45 -63 -1 -111 30
-142 92 -73 142 5 310 144 310 39 0 62 -10 119 -52 14 -9 45 -3 161 31 80 24
151 47 158 51 27 17 -74 135 -160 187 -87 53 -230 78 -360 63z"/>
<path d="M10945 8040 c-180 -19 -334 -135 -395 -296 -107 -288 27 -565 315
-650 86 -25 258 -23 345 5 69 21 146 65 193 110 44 40 89 109 77 116 -14 9
-240 75 -255 75 -7 0 -29 -15 -49 -34 -66 -63 -181 -69 -251 -14 -29 23 -59
83 -50 98 4 6 135 10 330 10 l324 0 7 48 c16 107 -29 268 -100 355 -108 134
-286 198 -491 177z m142 -250 c45 -20 83 -69 83 -107 0 -23 -1 -23 -151 -23
l-151 0 5 30 c10 47 37 81 82 101 51 24 79 23 132 -1z"/>
<path d="M12687 8039 c-82 -9 -178 -52 -227 -102 -19 -20 -38 -37 -42 -37 -5
0 -8 29 -8 65 l0 66 -147 -3 -148 -3 -3 -467 -2 -468 170 0 170 0 0 269 0 269
33 43 c79 103 198 104 227 1 5 -21 10 -154 10 -309 l0 -273 165 0 165 0 0 350
c0 213 -4 369 -11 400 -16 75 -65 140 -130 172 -62 30 -124 38 -222 27z"/>
<path d="M13535 8039 c-224 -33 -377 -248 -362 -509 12 -201 95 -334 254 -407
48 -23 72 -27 143 -28 109 0 173 22 240 82 l50 45 0 -49 c0 -100 -36 -165
-114 -205 -32 -17 -59 -21 -121 -21 -91 0 -153 20 -229 73 l-48 32 -45 -43
c-24 -24 -63 -66 -86 -93 l-41 -49 39 -33 c56 -47 161 -101 236 -121 94 -24
271 -22 373 6 200 53 332 185 365 366 7 36 11 228 11 502 l0 443 -145 0 -145
0 0 -58 c0 -32 -3 -61 -6 -64 -3 -4 -22 12 -42 34 -73 80 -193 116 -327 97z
m226 -299 c21 -11 53 -39 69 -62 28 -39 30 -46 30 -138 0 -96 0 -96 -34 -129
-64 -62 -171 -70 -241 -17 -108 83 -92 273 30 347 39 25 96 24 146 -1z"/>
<path d="M11660 7255 l0 -165 135 0 135 0 -2 163 -3 162 -132 3 -133 3 0 -166z"/>
</g>
</svg>
